<?xml version="1.0"?>


    <svg id="mainsvg" viewBox="0 0 18 18"
         xmlns="http://www.w3.org/2000/svg">
<g transform="translate(0 0)" opacity="1">
    <!-- Generator: Sketch 53.1 (72631) - https://sketchapp.com -->
    <title>Icons/Asset Type/medium/type-masterclip</title>
      <rect fill="none" id="canvas_background" height="230" width="230" y="-1" x="-1"/>
    <desc>Created with Sketch.</desc>
    <g id="Icons/Asset-Type/medium/type-masterclip" stroke="none" stroke-width="1" fill="none" fill-rule="evenodd">
        <path d="M15,6 L2,6 L2,12 L15,12 L15,6 Z M16,6 L16,12 L16,14 C16,14.5522847 15.5522847,15 15,15 L2,15 C1.44771525,15 1,14.5522847 1,14 L1,12 L1,6 L1,4 C1,3.44771525 1.44771525,3 2,3 L15,3 C15.5522847,3 16,3.44771525 16,4 L16,6 Z M2,4 L2,5 L3,5 L3,4 L2,4 Z M4,4 L4,5 L5,5 L5,4 L4,4 Z M6,4 L6,5 L7,5 L7,4 L6,4 Z M8,4 L8,5 L9,5 L9,4 L8,4 Z M10,4 L10,5 L11,5 L11,4 L10,4 Z M12,4 L12,5 L13,5 L13,4 L12,4 Z M14,4 L14,5 L15,5 L15,4 L14,4 Z M2,13 L2,14 L3,14 L3,13 L2,13 Z M4,13 L4,14 L5,14 L5,13 L4,13 Z M6,13 L6,14 L7,14 L7,13 L6,13 Z M8,13 L8,14 L9,14 L9,13 L8,13 Z M10,13 L10,14 L11,14 L11,13 L10,13 Z M12,13 L12,14 L13,14 L13,13 L12,13 Z M14,13 L14,14 L15,14 L15,13 L14,13 Z" id="Combined-Shape" fill="#B1B5CA"></path>
    </g>
</g>

</svg>