<?xml version="1.0"?>


    <svg id="mainsvg" viewBox="0 0 18 18"
         xmlns="http://www.w3.org/2000/svg">
<g transform="translate(0 0)" opacity="1">
    <!-- Generator: Sketch 53.2 (72643) - https://sketchapp.com -->
    <title>Icons/Asset Editor/play_fwd</title>
    <desc>Created with Sketch.</desc>
    <g id="Icons/Asset-Editor/play_fwd" stroke="none" stroke-width="1" fill="none" fill-rule="evenodd">
        <path d="M14.3900018,8.06674967 C14.6289437,8.16803021 14.8191529,8.3582355 14.9204384,8.59717528 C15.1359835,9.10566198 14.8985075,9.69260578 14.3900208,9.90815096 L7.34260376,12.8955186 C7.21914363,12.9478528 7.08641897,12.974822 6.9523247,12.974822 C6.40003995,12.974822 5.9523247,12.5271068 5.9523247,11.974822 L5.9523247,6.00025825 C5.9523247,5.86617094 5.97929111,5.73345301 6.03162003,5.60999819 C6.24715471,5.10150705 6.83409361,4.86401891 7.34258476,5.07955358 L14.3900018,8.06674967 Z M4,5 C4.55228475,5 5,5.44771525 5,6 L5,12 C5,12.5522847 4.55228475,13 4,13 C3.44771525,13 3,12.5522847 3,12 L3,6 C3,5.44771525 3.44771525,5 4,5 Z" id="Combined-Shape" fill="#B1B5CA"></path>
    </g>
</g>

</svg>