<?xml version="1.0"?>


    <svg id="mainsvg" viewBox="0 0 18 18"
         xmlns="http://www.w3.org/2000/svg">
<g transform="translate(0 0)" opacity="1">
    <!-- Generator: Sketch 53.2 (72643) - https://sketchapp.com -->
    <title>Icons/Asset Editor/play_back</title>
    <desc>Created with Sketch.</desc>
    <g id="Icons/Asset-Editor/play_back" stroke="none" stroke-width="1" fill="none" fill-rule="evenodd">
        <path d="M3.60999819,8.07931928 L10.6574152,5.09212319 C11.1659064,4.87658851 11.7528453,5.11407666 11.96838,5.6225678 C12.0207089,5.74602262 12.0476753,5.87874055 12.0476753,6.01282786 L12.0476753,11.9873916 C12.0476753,12.5396764 11.59996,12.9873916 11.0476753,12.9873916 C10.913581,12.9873916 10.7808564,12.9604224 10.6573962,12.9080882 L3.60997918,9.92072056 C3.10149248,9.70517539 2.86401646,9.11823159 3.07956163,8.60974489 C3.1808471,8.37080511 3.37105632,8.18059982 3.60999819,8.07931928 Z M14.0476753,5 C14.59996,5 15.0476753,5.44771525 15.0476753,6 L15.0476753,12 C15.0476753,12.5522847 14.59996,13 14.0476753,13 C13.4953905,13 13.0476753,12.5522847 13.0476753,12 L13.0476753,6 C13.0476753,5.44771525 13.4953905,5 14.0476753,5 Z" id="Combined-Shape" fill="#B1B5CA"></path>
    </g>
</g>

</svg>