<?xml version="1.0"?>


    <svg id="mainsvg" viewBox="0 0 18 18"
         xmlns="http://www.w3.org/2000/svg">
<g transform="translate(0 0)" opacity="1">
    <!-- Generator: Sketch 53.2 (72643) - https://sketchapp.com -->
    <title>Icons/Refresh</title>
    <desc>Created with Sketch.</desc>
    <g id="Icons/Refresh" stroke="none" stroke-width="1" fill="none" fill-rule="evenodd">
        <path d="M3.50413793,9.23412257 L2.20115392,9.01981213 C2.1344783,9.00884554 2.06734078,9.00127339 2.00000051,8.99710926 C2.00156238,4.58015984 5.58268562,1 10,1 C14.418278,1 18,4.581722 18,9 C18,13.418278 14.418278,17 10,17 C5.92402229,17 2.55999958,13.9517583 2.06321781,10.0105609 L3.62345038,10.2671827 C4.21295687,13.2504301 6.84377084,15.5 10,15.5 C13.5898509,15.5 16.5,12.5898509 16.5,9 C16.5,5.41014913 13.5898509,2.5 10,2.5 C6.41014913,2.5 3.5,5.41014913 3.5,9 C3.5,9.07837256 3.50138704,9.15642115 3.50413793,9.23412257 Z" id="Combined-Shape" fill="#B1B5CA"></path>
        <path d="M5.5279476,12.6947618 L2.20349232,14.614137 C1.7251997,14.8902794 1.11360929,14.7264042 0.837466915,14.2481116 C0.723931167,14.0514619 0.68070301,13.822027 0.714892569,13.5975442 L1.17751074,10.5600721 C1.26066681,10.0140835 1.7706893,9.63888364 2.31667787,9.7220397 C2.38968284,9.73315863 2.46123156,9.75233005 2.53001519,9.77920327 L5.3918523,10.8973002 C5.9062703,11.0982793 6.1603628,11.6782231 5.95938379,12.1926411 C5.8767514,12.4041437 5.72459729,12.5812261 5.5279476,12.6947618 Z" id="Combined-Shape" fill="#B1B5CA" transform="translate(3.365853, 12.229390) rotate(-12.000000) translate(-3.365853, -12.229390) "></path>
    </g>
</g>

</svg>