<?xml version="1.0"?>


    <svg id="mainsvg" viewBox="0 0 18 18"
         xmlns="http://www.w3.org/2000/svg">
<g transform="translate(0 0)" opacity="1">
    <!-- type-folder.svg: Generator: Sketch 54.1 (76490) - https://sketchapp.com -->
    <title>Icons/Asset Type/medium/folder2@2x</title>
    <desc>Created with Sketch.</desc>
    <g id="Icons/Asset-Type/medium/folder2" stroke="none" stroke-width="1" fill="none" fill-rule="evenodd">
        <path d="M9,4 L14,4 C15.1045695,4 16,4.8954305 16,6 L16,6.26756439 C15.7058266,6.09739429 15.3642871,6 15,6 L11,6 C10.6852427,6 10.3888544,5.85180584 10.2,5.6 L9,4 Z M1,5 C1,3.8954305 1.8954305,3 3,3 L6,3 C6.62951461,3 7.22229124,3.29638831 7.6,3.8 L9.4,6.2 C9.77770876,6.70361169 10.3704854,7 11,7 L15,7 C15.5522847,7 16,7.44771525 16,8 L16,13 C16,14.1045695 15.1045695,15 14,15 L3,15 C1.8954305,15 1,14.1045695 1,13 L1,5 Z" id="Combined-Shape" fill="#B1B5CA"></path>
    </g>
</g>

</svg>